<svg width="1653" height="223" viewBox="0 0 1653 223" fill="none" xmlns="http://www.w3.org/2000/svg">
<g clip-path="url(#clip0_21_1220)">
<path d="M0.103394 0.20752H46.6231L77.016 125.295L80.7375 148.632H83.2186L88.1807 125.295L127.257 0.20752H168.505L206.651 125.295L211.613 148.01H214.094L217.816 125.295L247.898 0.20752H294.418L237.044 223H192.075L154.239 88.5777L149.277 64.6182H146.795L141.833 88.5777L102.137 223H59.0283L0.103394 0.20752ZM325.548 0.20752H466.348V40.0364H367.416V91.6894H456.423V131.518H367.416V183.171H466.348V223H325.548V0.20752ZM509.386 0.20752H596.222C608.628 0.20752 619.999 2.80054 630.337 7.98658C640.881 13.1726 649.151 20.2257 655.147 29.1457C661.143 38.0657 664.141 47.8154 664.141 58.395C664.141 69.5968 661.35 79.3466 655.768 87.6443C650.392 95.7345 643.259 101.958 634.368 106.314V108.803C645.947 112.952 655.147 119.59 661.97 128.718C668.793 137.638 672.204 148.425 672.204 161.079C672.204 173.318 668.896 184.208 662.28 193.751C655.871 203.086 647.084 210.346 635.919 215.532C624.961 220.511 612.763 223 599.324 223H509.386V0.20752ZM593.121 91.067C602.218 91.067 609.455 88.5777 614.83 83.5991C620.413 78.4131 623.204 71.9824 623.204 64.3071C623.204 56.8391 620.516 50.6159 615.14 45.6373C609.971 40.4512 603.045 37.8582 594.362 37.8582H551.253V91.067H593.121ZM597.773 184.727C607.904 184.727 615.761 182.134 621.343 176.948C627.132 171.554 630.027 164.605 630.027 156.1C630.027 147.595 627.132 140.646 621.343 135.252C615.554 129.859 607.284 127.162 596.532 127.162H551.253V184.727H597.773ZM750.295 0.20752H796.814L827.207 125.295L830.929 148.632H833.41L838.372 125.295L877.448 0.20752H918.696L956.842 125.295L961.804 148.01H964.285L968.007 125.295L998.089 0.20752H1044.6L987.235 223H942.266L904.43 88.5777L899.468 64.6182H896.987L892.025 88.5777L852.328 223H809.219L750.295 0.20752ZM1075.74 0.20752H1156.69C1171.16 0.20752 1183.98 3.21542 1195.14 9.23124C1206.51 15.2471 1215.3 23.6485 1221.5 34.4354C1227.71 45.015 1230.81 57.0466 1230.81 70.5303C1230.81 84.8438 1226.26 97.6015 1217.16 108.803C1208.27 119.798 1197 127.784 1183.36 132.763L1183.05 134.941L1242.59 220.511V223H1194.52L1137.15 139.297H1117.61V223H1075.74V0.20752ZM1156.38 100.713C1165.89 100.713 1173.64 97.8089 1179.64 92.0005C1185.63 86.1922 1188.63 78.828 1188.63 69.908C1188.63 61.4029 1185.74 54.1424 1179.95 48.1266C1174.36 42.1108 1166.71 39.1029 1157 39.1029H1117.61V100.713H1156.38ZM1334.63 0.20752H1382.7L1466.13 223H1419.92L1401.31 169.791H1316.33L1297.72 223H1251.51L1334.63 0.20752ZM1387.66 131.207L1368.12 75.1977L1360.06 48.4378H1357.58L1349.52 75.1977L1329.67 131.207H1387.66ZM1496.11 0.20752H1574.27C1588.33 0.20752 1601.15 3.21542 1612.72 9.23124C1624.3 15.0396 1633.4 23.3373 1640.02 34.1243C1646.63 44.7038 1649.94 56.8391 1649.94 70.5303C1649.94 84.2215 1646.63 96.4605 1640.02 107.248C1633.4 118.034 1624.3 126.436 1612.72 132.452C1601.15 138.26 1588.33 141.164 1574.27 141.164H1537.98V223H1496.11V0.20752ZM1575.51 101.335C1585.85 101.335 1593.91 98.3275 1599.7 92.3117C1605.69 86.2959 1608.69 79.0354 1608.69 70.5303C1608.69 62.0252 1605.69 54.8684 1599.7 49.0601C1593.91 43.0443 1585.85 40.0364 1575.51 40.0364H1537.98V101.335H1575.51Z" fill="#202124"/>
<path d="M1334.6 0L1251.38 223H1419.88H1466.4L1382.67 0H1334.6Z" fill="#FBBC05"/>
<path d="M1155.61 138.986C1260.66 138.986 1254.91 8.87789e-05 1155.61 0H1075.12V138.986H1155.61Z" fill="#4285F4"/>
<path d="M1576.36 141.06C1681.41 141.06 1675.65 9.01039e-05 1576.36 0H1495.87V141.06H1576.36Z" fill="#34A853"/>
<path d="M606.11 223C691.076 217.814 692.11 115.13 623.881 106.833H508.615V223H606.11Z" fill="#34A853"/>
<path d="M467.264 40.4512V0H368.022V40.4512H467.264Z" fill="#FBBC05"/>
<path d="M456.927 131.726V91.2744H368.022V131.726H456.927Z" fill="#9AA0A6"/>
<path d="M467.264 223V182.549H368.022V223H467.264Z" fill="#4285F4"/>
<path d="M168.505 0H0L58.9249 223H102.343L168.505 0Z" fill="#E94335"/>
<path d="M919.023 0H750.518L809.443 223H852.861L919.023 0Z" fill="#E94335"/>
</g>
<defs>
<clipPath id="clip0_21_1220">
<rect width="1653" height="223" fill="white"/>
</clipPath>
</defs>
</svg>
