<svg id="Layer_1" data-name="Layer 1" xmlns="http://www.w3.org/2000/svg" viewBox="0 0 180 40.77"><defs><style>.cls-1{fill:#4184f4;}.cls-1,.cls-2,.cls-3,.cls-4,.cls-5{fill-rule:evenodd;}.cls-2{fill:#33a852;}.cls-3{fill:#fbbb03;}.cls-4{fill:#e94234;}.cls-5{fill:#5e6266;}</style></defs><title>google-ai-seeklogo</title><path class="cls-1" d="M481.6,528a3.41,3.41,0,1,1-3.41,3.41A3.41,3.41,0,0,1,481.6,528Z" transform="translate(-449 -520)"/><path class="cls-1" d="M481.6,546a3.41,3.41,0,1,1-3.41,3.41A3.41,3.41,0,0,1,481.6,546Z" transform="translate(-449 -520)"/><path class="cls-1" d="M481.6,537a3.41,3.41,0,1,1-3.41,3.41A3.41,3.41,0,0,1,481.6,537Z" transform="translate(-449 -520)"/><path class="cls-2" d="M474,523.87a3,3,0,1,1-3,3,3,3,0,0,1,3-3Z" transform="translate(-449 -520)"/><path class="cls-2" d="M474,551a3,3,0,1,1-3,3,3,3,0,0,1,3-3Z" transform="translate(-449 -520)"/><path class="cls-2" d="M474,542a3,3,0,1,1-3,3,3,3,0,0,1,3-3Z" transform="translate(-449 -520)"/><path class="cls-2" d="M474,532.83a3,3,0,1,1-3,3,3,3,0,0,1,3-3Z" transform="translate(-449 -520)"/><path class="cls-3" d="M466.3,520a2.51,2.51,0,1,1-2.51,2.5,2.5,2.5,0,0,1,2.51-2.5Z" transform="translate(-449 -520)"/><path class="cls-3" d="M466.3,555.76a2.51,2.51,0,1,1-2.51,2.51,2.51,2.51,0,0,1,2.51-2.51Z" transform="translate(-449 -520)"/><path class="cls-3" d="M466.3,546.79a2.51,2.51,0,1,1-2.51,2.51,2.51,2.51,0,0,1,2.51-2.51Z" transform="translate(-449 -520)"/><path class="cls-3" d="M466.3,537.87a2.51,2.51,0,1,1-2.51,2.51,2.5,2.5,0,0,1,2.51-2.51Z" transform="translate(-449 -520)"/><path class="cls-3" d="M466.3,528.93a2.51,2.51,0,1,1-2.51,2.5,2.5,2.5,0,0,1,2.51-2.5Z" transform="translate(-449 -520)"/><path class="cls-4" d="M458.56,524.77a2.18,2.18,0,1,1-2.18,2.18,2.18,2.18,0,0,1,2.18-2.18Z" transform="translate(-449 -520)"/><path class="cls-4" d="M458.56,551.64a2.18,2.18,0,1,1-2.18,2.18,2.18,2.18,0,0,1,2.18-2.18Z" transform="translate(-449 -520)"/><path class="cls-4" d="M458.56,542.77a2.18,2.18,0,1,1-2.18,2.18,2.18,2.18,0,0,1,2.18-2.18Z" transform="translate(-449 -520)"/><path class="cls-4" d="M458.56,533.64a2.18,2.18,0,1,1-2.18,2.18,2.18,2.18,0,0,1,2.18-2.18Z" transform="translate(-449 -520)"/><path class="cls-1" d="M450.81,529.56a1.82,1.82,0,1,1-1.81,1.82,1.81,1.81,0,0,1,1.81-1.82Z" transform="translate(-449 -520)"/><path class="cls-1" d="M450.81,547.56a1.82,1.82,0,1,1-1.81,1.81,1.81,1.81,0,0,1,1.81-1.81Z" transform="translate(-449 -520)"/><path class="cls-1" d="M450.81,538.57a1.82,1.82,0,1,1-1.81,1.81,1.81,1.81,0,0,1,1.81-1.81Z" transform="translate(-449 -520)"/><path class="cls-5" d="M575.28,528.81c1.16,0,2.32,0,3.48,0q0,11.81,0,23.63h-3.49q0-11.8,0-23.62Z" transform="translate(-449 -520)"/><path class="cls-5" d="M564.39,540.07h0a4.43,4.43,0,0,0-2.41,1.54,5.31,5.31,0,0,0,.18,6.74,4.22,4.22,0,0,0,7.08-1.18,5.59,5.59,0,0,0-1-6,4.08,4.08,0,0,0-3.88-1.11Zm-3.17-2.15a6.88,6.88,0,0,1,6.27-.63,7.11,7.11,0,0,1,2,1.36c0-.45,0-.9,0-1.35h3.35v14.3a10,10,0,0,1-1.48,5.67A6.77,6.77,0,0,1,567,560a8.43,8.43,0,0,1-4.94-.44,8,8,0,0,1-4.08-4.13c1-.44,2-.84,3-1.29a4.82,4.82,0,0,0,3,2.74,4.39,4.39,0,0,0,4.44-1.29,6.67,6.67,0,0,0,1-4.56,6,6,0,0,1-2.82,1.7,7.36,7.36,0,0,1-6.82-2,8.2,8.2,0,0,1,1.42-12.79Z" transform="translate(-449 -520)"/><path class="cls-5" d="M529.12,540.06h0a4.48,4.48,0,0,0-2.77,1.9,5.29,5.29,0,0,0,.48,6.42A4.44,4.44,0,0,0,531,549.7a4.54,4.54,0,0,0,2.37-1.31,5.27,5.27,0,0,0-.14-7.18,4.49,4.49,0,0,0-4.06-1.15Zm.1-3.22a8.07,8.07,0,0,1,7.53,12.7,8,8,0,0,1-5.81,3.36,8.29,8.29,0,0,1-6-1.74,8.21,8.21,0,0,1-.68-12,8.17,8.17,0,0,1,5-2.35Z" transform="translate(-449 -520)"/><path class="cls-5" d="M584.89,541.68h0a4.65,4.65,0,0,0-.88,3l7.26-3a3.09,3.09,0,0,0-2.59-1.71,4.29,4.29,0,0,0-3.79,1.76Zm-2.23-2.53a7.2,7.2,0,0,1,11.68,1.38,17,17,0,0,1,1,2.29c-3.58,1.54-7.19,3-10.79,4.49a4.24,4.24,0,0,0,2.2,2.17,4.68,4.68,0,0,0,4.51-.62,6.72,6.72,0,0,0,1.2-1.3l2.72,1.82a8.1,8.1,0,0,1-12.71.91,8.53,8.53,0,0,1,.14-11.14Z" transform="translate(-449 -520)"/><path class="cls-5" d="M546.82,540.06h0a4.49,4.49,0,0,0-2.29,1.31,5.28,5.28,0,0,0,0,7,4.42,4.42,0,0,0,4.1,1.31,4.49,4.49,0,0,0,2.44-1.39,5.29,5.29,0,0,0-.23-7.11,4.44,4.44,0,0,0-4-1.14Zm-.2-3.17a8.17,8.17,0,0,1,7,2.38,8.28,8.28,0,0,1,.69,10.38,8,8,0,0,1-5.72,3.24,8.24,8.24,0,0,1-5.89-1.65,8.06,8.06,0,0,1,3.87-14.35Z" transform="translate(-449 -520)"/><path class="cls-5" d="M500.15,531.51a12.76,12.76,0,0,1,9.31-3.63,11.92,11.92,0,0,1,8.23,3.44c-.81.78-1.61,1.58-2.39,2.39a9,9,0,0,0-12.76.37,9.27,9.27,0,0,0,1.8,14.11,9.48,9.48,0,0,0,7.06,1.1,8.17,8.17,0,0,0,4.32-2.58,7.48,7.48,0,0,0,1.6-4h-8.2v-3.42h11.51a12.62,12.62,0,0,1-1.45,8.45,11.07,11.07,0,0,1-7,4.9,13.51,13.51,0,0,1-7.48-.43,12.89,12.89,0,0,1-7.17-6.44,12.22,12.22,0,0,1-1-7.71,12.51,12.51,0,0,1,3.58-6.52Z" transform="translate(-449 -520)"/><polygon class="cls-5" points="177.12 9.77 180 9.77 180 32.59 177.12 32.59 177.12 9.77 177.12 9.77"/><path class="cls-5" d="M609.57,543.61h7.33l-3.66-10-3.67,10ZM615,529.77l8.46,22.82h-3.24L618,546.48h-9.45l-2.25,6.11H603l8.46-22.82Z" transform="translate(-449 -520)"/></svg>